<?xml version="1.0" encoding="UTF-8" standalone="no"?>
<!DOCTYPE svg PUBLIC "-//W3C//DTD SVG 1.1//EN"
 "http://www.w3.org/Graphics/SVG/1.1/DTD/svg11.dtd">
<!-- Generated by graphviz version 14.1.5 (20260411.2331)
 -->
<!-- Title: LedgerLoop | Request Flow Pages: 1 -->
<svg width="3823pt" height="2211pt"
 viewBox="0.00 0.00 3823.00 2211.00" xmlns="http://www.w3.org/2000/svg" xmlns:xlink="http://www.w3.org/1999/xlink">
<g id="graph0" class="graph" transform="scale(2.66667 2.66667) rotate(0) translate(43.2 785.95)">
<title>LedgerLoop | Request Flow</title>
<polygon fill="white" stroke="none" points="-43.2,43.2 -43.2,-785.95 1390.25,-785.95 1390.25,43.2 -43.2,43.2"/>
<text xml:space="preserve" text-anchor="middle" x="673.53" y="-7.55" font-family="Helvetica Neue,Helvetica,Arial,sans-serif" font-size="16.00" fill="#2d3436">LedgerLoop | Request Flow</text>
<g id="clust1" class="cluster">
<title>cluster_Vercel</title>
<path fill="#f8fafc" stroke="#aeb6be" d="M259.8,-248.75C259.8,-248.75 1092.25,-248.75 1092.25,-248.75 1098.25,-248.75 1104.25,-254.75 1104.25,-260.75 1104.25,-260.75 1104.25,-722.75 1104.25,-722.75 1104.25,-728.75 1098.25,-734.75 1092.25,-734.75 1092.25,-734.75 259.8,-734.75 259.8,-734.75 253.8,-734.75 247.8,-728.75 247.8,-722.75 247.8,-722.75 247.8,-260.75 247.8,-260.75 247.8,-254.75 253.8,-248.75 259.8,-248.75"/>
<text xml:space="preserve" text-anchor="middle" x="271.55" y="-719.35" font-family="Sans-Serif" font-size="12.00" fill="#2d3436">Vercel</text>
</g>
<g id="clust2" class="cluster">
<title>cluster_Ledger Service</title>
<path fill="#ebf3e7" stroke="#aeb6be" d="M518.6,-256.75C518.6,-256.75 1084.25,-256.75 1084.25,-256.75 1090.25,-256.75 1096.25,-262.75 1096.25,-268.75 1096.25,-268.75 1096.25,-690.75 1096.25,-690.75 1096.25,-696.75 1090.25,-702.75 1084.25,-702.75 1084.25,-702.75 518.6,-702.75 518.6,-702.75 512.6,-702.75 506.6,-696.75 506.6,-690.75 506.6,-690.75 506.6,-268.75 506.6,-268.75 506.6,-262.75 512.6,-256.75 518.6,-256.75"/>
<text xml:space="preserve" text-anchor="middle" x="553.23" y="-687.35" font-family="Sans-Serif" font-size="12.00" fill="#2d3436">Ledger Service</text>
</g>
<g id="clust3" class="cluster">
<title>cluster_Aurora DSQL</title>
<path fill="#fff7ed" stroke="#aeb6be" d="M991.45,-34.75C991.45,-34.75 1084.25,-34.75 1084.25,-34.75 1090.25,-34.75 1096.25,-40.75 1096.25,-46.75 1096.25,-46.75 1096.25,-228.75 1096.25,-228.75 1096.25,-234.75 1090.25,-240.75 1084.25,-240.75 1084.25,-240.75 991.45,-240.75 991.45,-240.75 985.45,-240.75 979.45,-234.75 979.45,-228.75 979.45,-228.75 979.45,-46.75 979.45,-46.75 979.45,-40.75 985.45,-34.75 991.45,-34.75"/>
<text xml:space="preserve" text-anchor="middle" x="1021.95" y="-225.35" font-family="Sans-Serif" font-size="12.00" fill="#2d3436">Aurora DSQL</text>
</g>
<!-- 5bf2fd1783f04b87a68d2cd00e1708af -->
<g id="node1" class="node">
<title>5bf2fd1783f04b87a68d2cd00e1708af</title>
<image xlink:href="C:\Users\Suleiman Abdulkadir\AppData\Local\Programs\Python\Python313\Lib\site-packages\resources/aws/general\users.png" width="100.8px" height="100.8px" preserveAspectRatio="xMinYMin meet" x="8.52651e-14" y="-518.15"/>
<text xml:space="preserve" text-anchor="middle" x="50.4" y="-401.5" font-family="Helvetica Neue,Helvetica,Arial,sans-serif" font-size="11.00" fill="#2d3436">Members</text>
<text xml:space="preserve" text-anchor="middle" x="50.4" y="-388" font-family="Helvetica Neue,Helvetica,Arial,sans-serif" font-size="11.00" fill="#2d3436">(Lagos/London/Toronto)</text>
</g>
<!-- 804ccfe10d364e35bd91461778217e3b -->
<g id="node2" class="node">
<title>804ccfe10d364e35bd91461778217e3b</title>
<image xlink:href="C:\Users\Suleiman Abdulkadir\AppData\Local\Programs\Python\Python313\Lib\site-packages\resources/programming/framework\react.png" width="100.8px" height="100.8px" preserveAspectRatio="xMinYMin meet" x="255.8" y="-518.15"/>
<text xml:space="preserve" text-anchor="middle" x="306.2" y="-401.5" font-family="Helvetica Neue,Helvetica,Arial,sans-serif" font-size="11.00" fill="#2d3436">Next.js</text>
<text xml:space="preserve" text-anchor="middle" x="306.2" y="-388" font-family="Helvetica Neue,Helvetica,Arial,sans-serif" font-size="11.00" fill="#2d3436">App Router</text>
</g>
<!-- 5bf2fd1783f04b87a68d2cd00e1708af&#45;&gt;804ccfe10d364e35bd91461778217e3b -->
<g id="edge1" class="edge">
<title>5bf2fd1783f04b87a68d2cd00e1708af&#45;&gt;804ccfe10d364e35bd91461778217e3b</title>
<path fill="none" stroke="#333333" stroke-width="1.4" d="M100.64,-467.75C142.23,-467.75 201.91,-467.75 246.08,-467.75"/>
<polygon fill="#333333" stroke="#333333" stroke-width="1.4" points="245.98,-470.55 253.98,-467.75 245.98,-464.95 245.98,-470.55"/>
<text xml:space="preserve" text-anchor="middle" x="178.3" y="-471.9" font-family="Sans-Serif" font-size="13.00" fill="#2d3436">HTTPS</text>
</g>
<!-- 4b8767f5bef94e0f9955d33655606ec5 -->
<g id="node3" class="node">
<title>4b8767f5bef94e0f9955d33655606ec5</title>
<image xlink:href="C:\Users\Suleiman Abdulkadir\AppData\Local\Programs\Python\Python313\Lib\site-packages\resources/aws/security\identity-and-access-management-iam-role.png" width="100.8px" height="100.8px" preserveAspectRatio="xMinYMin meet" x="514.6" y="-518.15"/>
<text xml:space="preserve" text-anchor="middle" x="565" y="-402.4" font-family="Helvetica Neue,Helvetica,Arial,sans-serif" font-size="11.00" fill="#2d3436">Auth Guard</text>
</g>
<!-- 804ccfe10d364e35bd91461778217e3b&#45;&gt;4b8767f5bef94e0f9955d33655606ec5 -->
<g id="edge2" class="edge">
<title>804ccfe10d364e35bd91461778217e3b&#45;&gt;4b8767f5bef94e0f9955d33655606ec5</title>
<path fill="none" stroke="#10b981" stroke-width="1.4" d="M356.41,-467.75C398.79,-467.75 460.05,-467.75 505.04,-467.75"/>
<polygon fill="#10b981" stroke="#10b981" stroke-width="1.4" points="504.84,-470.55 512.84,-467.75 504.84,-464.95 504.84,-470.55"/>
<text xml:space="preserve" text-anchor="middle" x="435.6" y="-471.9" font-family="Sans-Serif" font-size="13.00" fill="#2d3436">session</text>
</g>
<!-- 8d2fa6ffdf8048fb9d7955f818d9fb3f -->
<g id="node4" class="node">
<title>8d2fa6ffdf8048fb9d7955f818d9fb3f</title>
<image xlink:href="C:\Users\Suleiman Abdulkadir\AppData\Local\Programs\Python\Python313\Lib\site-packages\resources/aws/compute\lambda.png" width="100.8px" height="100.8px" preserveAspectRatio="xMinYMin meet" x="732.4" y="-398.15"/>
<text xml:space="preserve" text-anchor="middle" x="782.8" y="-281.5" font-family="Helvetica Neue,Helvetica,Arial,sans-serif" font-size="11.00" fill="#2d3436">Split</text>
<text xml:space="preserve" text-anchor="middle" x="782.8" y="-268" font-family="Helvetica Neue,Helvetica,Arial,sans-serif" font-size="11.00" fill="#2d3436">Calculator</text>
</g>
<!-- 4b8767f5bef94e0f9955d33655606ec5&#45;&gt;8d2fa6ffdf8048fb9d7955f818d9fb3f -->
<g id="edge3" class="edge">
<title>4b8767f5bef94e0f9955d33655606ec5&#45;&gt;8d2fa6ffdf8048fb9d7955f818d9fb3f</title>
<path fill="none" stroke="#333333" stroke-width="1.4" d="M615.24,-440.37C647.58,-422.39 690.02,-398.79 723.96,-379.91"/>
<polygon fill="#333333" stroke="#333333" stroke-width="1.4" points="724.92,-382.58 730.55,-376.25 722.2,-377.69 724.92,-382.58"/>
</g>
<!-- af08a2fa68bd4bcaa3e29e2024b20ec0 -->
<g id="node5" class="node">
<title>af08a2fa68bd4bcaa3e29e2024b20ec0</title>
<image xlink:href="C:\Users\Suleiman Abdulkadir\AppData\Local\Programs\Python\Python313\Lib\site-packages\resources/aws/compute\lambda.png" width="100.8px" height="100.8px" preserveAspectRatio="xMinYMin meet" x="987.45" y="-518.15"/>
<text xml:space="preserve" text-anchor="middle" x="1037.85" y="-401.5" font-family="Helvetica Neue,Helvetica,Arial,sans-serif" font-size="11.00" fill="#2d3436">Balance</text>
<text xml:space="preserve" text-anchor="middle" x="1037.85" y="-388" font-family="Helvetica Neue,Helvetica,Arial,sans-serif" font-size="11.00" fill="#2d3436">Engine</text>
</g>
<!-- 4b8767f5bef94e0f9955d33655606ec5&#45;&gt;af08a2fa68bd4bcaa3e29e2024b20ec0 -->
<g id="edge4" class="edge">
<title>4b8767f5bef94e0f9955d33655606ec5&#45;&gt;af08a2fa68bd4bcaa3e29e2024b20ec0</title>
<path fill="none" stroke="#333333" stroke-width="1.4" d="M615.06,-467.75C702.21,-467.75 883.69,-467.75 977.64,-467.75"/>
<polygon fill="#333333" stroke="#333333" stroke-width="1.4" points="977.43,-470.55 985.43,-467.75 977.43,-464.95 977.43,-470.55"/>
</g>
<!-- a363aafae0ee4629aeca468d9380565a -->
<g id="node6" class="node">
<title>a363aafae0ee4629aeca468d9380565a</title>
<image xlink:href="C:\Users\Suleiman Abdulkadir\AppData\Local\Programs\Python\Python313\Lib\site-packages\resources/aws/compute\lambda.png" width="100.8px" height="100.8px" preserveAspectRatio="xMinYMin meet" x="732.4" y="-638.15"/>
<text xml:space="preserve" text-anchor="middle" x="782.8" y="-521.5" font-family="Helvetica Neue,Helvetica,Arial,sans-serif" font-size="11.00" fill="#2d3436">Debt</text>
<text xml:space="preserve" text-anchor="middle" x="782.8" y="-508" font-family="Helvetica Neue,Helvetica,Arial,sans-serif" font-size="11.00" fill="#2d3436">Simplifier</text>
</g>
<!-- 4b8767f5bef94e0f9955d33655606ec5&#45;&gt;a363aafae0ee4629aeca468d9380565a -->
<g id="edge5" class="edge">
<title>4b8767f5bef94e0f9955d33655606ec5&#45;&gt;a363aafae0ee4629aeca468d9380565a</title>
<path fill="none" stroke="#333333" stroke-width="1.4" d="M615.24,-495.13C647.58,-513.11 690.02,-536.71 723.96,-555.59"/>
<polygon fill="#333333" stroke="#333333" stroke-width="1.4" points="722.2,-557.81 730.55,-559.25 724.92,-552.92 722.2,-557.81"/>
</g>
<!-- 2ca354537bf54390b9868c73a3bcb27e -->
<g id="node7" class="node">
<title>2ca354537bf54390b9868c73a3bcb27e</title>
<image xlink:href="C:\Users\Suleiman Abdulkadir\AppData\Local\Programs\Python\Python313\Lib\site-packages\resources/aws/database\aurora.png" width="100.8px" height="100.8px" preserveAspectRatio="xMinYMin meet" x="987.45" y="-176.15"/>
<text xml:space="preserve" text-anchor="middle" x="1037.85" y="-59.5" font-family="Helvetica Neue,Helvetica,Arial,sans-serif" font-size="11.00" fill="#2d3436">Append&#45;Only</text>
<text xml:space="preserve" text-anchor="middle" x="1037.85" y="-46" font-family="Helvetica Neue,Helvetica,Arial,sans-serif" font-size="11.00" fill="#2d3436">Ledger</text>
</g>
<!-- 8d2fa6ffdf8048fb9d7955f818d9fb3f&#45;&gt;2ca354537bf54390b9868c73a3bcb27e -->
<g id="edge6" class="edge">
<title>8d2fa6ffdf8048fb9d7955f818d9fb3f&#45;&gt;2ca354537bf54390b9868c73a3bcb27e</title>
<path fill="none" stroke="#333333" stroke-width="1.4" d="M833.17,-315.39C862.26,-295.46 899.18,-268.65 929.45,-241.75 947.04,-226.12 964.9,-207.94 980.87,-190.68"/>
<polygon fill="#333333" stroke="#333333" stroke-width="1.4" points="982.82,-192.7 986.16,-184.91 978.69,-188.92 982.82,-192.7"/>
<text xml:space="preserve" text-anchor="middle" x="910.33" y="-293.85" font-family="Sans-Serif" font-size="13.00" fill="#2d3436">atomic</text>
<text xml:space="preserve" text-anchor="middle" x="910.33" y="-277.35" font-family="Sans-Serif" font-size="13.00" fill="#2d3436">insert</text>
</g>
<!-- af08a2fa68bd4bcaa3e29e2024b20ec0&#45;&gt;2ca354537bf54390b9868c73a3bcb27e -->
<g id="edge7" class="edge">
<title>af08a2fa68bd4bcaa3e29e2024b20ec0&#45;&gt;2ca354537bf54390b9868c73a3bcb27e</title>
<path fill="none" stroke="#888888" stroke-width="1.4" stroke-dasharray="5,2" d="M1037.85,-385.13C1037.85,-334.83 1037.85,-270.47 1037.85,-218.44"/>
<polygon fill="#888888" stroke="#888888" stroke-width="1.4" points="1040.65,-218.66 1037.85,-210.66 1035.05,-218.66 1040.65,-218.66"/>
<text xml:space="preserve" text-anchor="middle" x="1026.6" y="-292.65" font-family="Sans-Serif" font-size="13.00" fill="#2d3436">derive</text>
</g>
<!-- a363aafae0ee4629aeca468d9380565a&#45;&gt;af08a2fa68bd4bcaa3e29e2024b20ec0 -->
<g id="edge8" class="edge">
<title>a363aafae0ee4629aeca468d9380565a&#45;&gt;af08a2fa68bd4bcaa3e29e2024b20ec0</title>
<path fill="none" stroke="#888888" stroke-width="1.4" stroke-dasharray="5,2" d="M833.19,-564.33C874.82,-544.59 934.46,-516.31 978.45,-495.45"/>
<polygon fill="#888888" stroke="#888888" stroke-width="1.4" points="979.64,-497.98 985.67,-492.02 977.24,-492.92 979.64,-497.98"/>
</g>
<!-- 2ca354537bf54390b9868c73a3bcb27e&#45;&gt;8d2fa6ffdf8048fb9d7955f818d9fb3f -->
<g id="edge9" class="edge">
<title>2ca354537bf54390b9868c73a3bcb27e&#45;&gt;8d2fa6ffdf8048fb9d7955f818d9fb3f</title>
<path fill="none" stroke="#cc0000" stroke-width="1.4" stroke-dasharray="5,2" d="M987.48,-143.91C957.51,-156.53 919.68,-175.44 891.2,-199.75 871.91,-216.22 854.2,-236.82 838.96,-257.38"/>
<polygon fill="#cc0000" stroke="#cc0000" stroke-width="1.4" points="836.7,-255.72 834.27,-263.83 841.24,-259.01 836.7,-255.72"/>
<text xml:space="preserve" text-anchor="middle" x="910.33" y="-220.4" font-family="Sans-Serif" font-size="13.00" fill="#2d3436">40001</text>
<text xml:space="preserve" text-anchor="middle" x="910.33" y="-203.9" font-family="Sans-Serif" font-size="13.00" fill="#2d3436">retry</text>
</g>
<!-- a881e109e3c74f6e914966c43f894630 -->
<g id="node8" class="node">
<title>a881e109e3c74f6e914966c43f894630</title>
<image xlink:href="C:\Users\Suleiman Abdulkadir\AppData\Local\Programs\Python\Python313\Lib\site-packages\resources/aws/management\cloudwatch.png" width="100.8px" height="100.8px" preserveAspectRatio="xMinYMin meet" x="1246.25" y="-176.15"/>
<text xml:space="preserve" text-anchor="middle" x="1296.65" y="-59.5" font-family="Helvetica Neue,Helvetica,Arial,sans-serif" font-size="11.00" fill="#2d3436">CloudWatch</text>
<text xml:space="preserve" text-anchor="middle" x="1296.65" y="-46" font-family="Helvetica Neue,Helvetica,Arial,sans-serif" font-size="11.00" fill="#2d3436">Metrics</text>
</g>
<!-- 2ca354537bf54390b9868c73a3bcb27e&#45;&gt;a881e109e3c74f6e914966c43f894630 -->
<g id="edge10" class="edge">
<title>2ca354537bf54390b9868c73a3bcb27e&#45;&gt;a881e109e3c74f6e914966c43f894630</title>
<path fill="none" stroke="#888888" stroke-width="1.4" stroke-dasharray="5,2" d="M1088.06,-125.75C1130.44,-125.75 1191.7,-125.75 1236.69,-125.75"/>
<polygon fill="#888888" stroke="#888888" stroke-width="1.4" points="1236.49,-128.55 1244.49,-125.75 1236.49,-122.95 1236.49,-128.55"/>
<text xml:space="preserve" text-anchor="middle" x="1167.25" y="-146.4" font-family="Sans-Serif" font-size="13.00" fill="#2d3436">DPU</text>
<text xml:space="preserve" text-anchor="middle" x="1167.25" y="-129.9" font-family="Sans-Serif" font-size="13.00" fill="#2d3436">metrics</text>
</g>
</g>
</svg>
